<?xml version="1.0" standalone="no"?>
<!DOCTYPE svg PUBLIC "-//W3C//DTD SVG 20010904//EN"
 "http://www.w3.org/TR/2001/REC-SVG-20010904/DTD/svg10.dtd">
<svg version="1.0" xmlns="http://www.w3.org/2000/svg"
 width="700.000000pt" height="700.000000pt" viewBox="0 0 700.000000 700.000000"
 preserveAspectRatio="xMidYMid meet">
<metadata>
Created by potrace 1.14, written by Peter Selinger 2001-2017
</metadata>
<g transform="translate(0.000000,700.000000) scale(0.100000,-0.100000)"
fill="#000000" stroke="none">
<path d="M2117 6532 c-16 -3 -17 -56 -17 -701 l0 -698 233 1 232 0 0 -519 c-1
-607 -5 -666 -55 -865 -86 -339 -273 -661 -516 -890 -112 -105 -138 -126 -252
-205 l-109 -74 0 -356 c0 -353 0 -355 21 -356 12 -1 848 -2 1859 -3 1217 0
1841 2 1845 9 4 6 7 168 8 360 l0 350 -85 56 c-297 193 -548 487 -688 808 -71
162 -130 378 -149 541 -8 79 -13 1140 -5 1141 3 0 107 2 231 2 l225 2 3 698
c2 554 0 697 -10 698 -38 3 -425 4 -439 1 -14 -3 -15 -31 -15 -218 1 -119 -2
-223 -5 -232 -6 -15 -28 -17 -230 -15 -123 1 -226 2 -229 2 -3 1 -4 104 -4
230 1 226 1 229 -20 233 -17 3 -847 2 -897 -1 -14 -1 -15 -28 -15 -227 1 -127
-3 -228 -8 -232 -5 -3 -110 -6 -232 -6 -191 -1 -223 1 -226 14 -2 8 -3 113 -3
233 1 119 -1 217 -4 218 -17 3 -430 4 -444 1z"/>
</g>
</svg>
